# xmcd
#
# Track frame offsets: 
#        150
#        14772
#        26817
#        42810
#        55817
#        71562
#        84562
#        103477
#        120795
#        134057
#
# Disc length: 2004 seconds
#
# Revision: 2
# Processed by: cddbd v1.5PL3 Copyright (c) Steve Scherf et al.
# Submitted via: ExactAudioCopy v0.95a3
#
DISCID=8c07d20a
DTITLE=River Road - River Road
DYEAR=1997
DGENRE=Country
TTITLE0=Wishful Thinkin'
TTITLE1=Somebody Will
TTITLE2=She Gets To Me
TTITLE3=Nickajack
TTITLE4=I Broke It, I'll Fix It
TTITLE5=Only Young Once
TTITLE6=Listen To Her Tears
TTITLE7=Tears To The Tide
TTITLE8=A Day In The Life
TTITLE9=As If You Didn't Know
EXTD=
EXTT0=
EXTT1=
EXTT2=
EXTT3=
EXTT4=
EXTT5=
EXTT6=
EXTT7=
EXTT8=
EXTT9=
PLAYORDER=
